<?xml version="1.0" encoding="UTF-8" standalone="no"?>
<svg
   xmlns:dc="http://purl.org/dc/elements/1.1/"
   xmlns:cc="http://creativecommons.org/ns#"
   xmlns:rdf="http://www.w3.org/1999/02/22-rdf-syntax-ns#"
   xmlns:svg="http://www.w3.org/2000/svg"
   xmlns="http://www.w3.org/2000/svg"
   xmlns:xlink="http://www.w3.org/1999/xlink"
   id="svg2"
   version="1.1"
   width="851.49799pt"
   height="961.37189pt"
   viewBox="0 0 851.49795 961.37187">
  <metadata
     id="metadata115">
    <rdf:RDF>
      <cc:Work
         rdf:about="">
        <dc:format>image/svg+xml</dc:format>
        <dc:type
           rdf:resource="http://purl.org/dc/dcmitype/StillImage" />
        <dc:title></dc:title>
      </cc:Work>
    </rdf:RDF>
  </metadata>
  <defs
     id="defs4">
    <path
       d="M 5.26,8.69 5.75,10 7.84,10 5,2.46 l -2.14,0 -2.9,7.54 2.08,0 0.52,-1.31 2.7,0 0,0 z m -0.53,-1.5 -1.63,0 0.81,-2.4 0.02,0 0.8,2.4 z"
       id="GlFuturaStd-Bold34" />
    <path
       d="m 0.64,10 2.78,0 C 5.51,10 7.25,8.35 7.25,6.23 7.25,4.11 5.52,2.46 3.42,2.46 l -2.78,0 0,7.54 0,0 z m 1.96,-5.88 0.46,0 c 1.26,0 2.15,0.76 2.15,2.11 0,1.47 -1,2.11 -2.17,2.11 l -0.44,0 0,-4.22 z"
       id="GlFuturaStd-Bold37" />
  </defs>
  <g
     transform="translate(-168.975,-363.1411)"
     id="Background">
    <g
       id="g23"
       transform="translate(170.079,363.141)">
      <use
         height="100%"
         width="100%"
         y="0"
         x="0"
         id="use25"
         style="fill:#161413;stroke:none"
         xlink:href="#GlFuturaStd-Bold34"
         transform="matrix(27.6,0,0,27.6,0,-67.896)" />
      <use
         height="100%"
         width="100%"
         y="0"
         x="0"
         id="use27"
         style="fill:#161413;stroke:none"
         xlink:href="#GlFuturaStd-Bold37"
         transform="matrix(27.6,0,0,27.6,215.556,-67.896)" />
      <use
         height="100%"
         width="100%"
         y="0"
         x="0"
         id="use29"
         style="fill:#161413;stroke:none"
         xlink:href="#GlFuturaStd-Bold34"
         transform="matrix(27.6,0,0,27.6,423.108,-67.896)" />
      <use
         height="100%"
         width="100%"
         y="0"
         x="0"
         id="use31"
         style="fill:#161413;stroke:none"
         xlink:href="#GlFuturaStd-Bold37"
         transform="matrix(27.6,0,0,27.6,638.664,-67.896)" />
      <use
         height="100%"
         width="100%"
         y="0"
         x="0"
         id="use33"
         style="fill:#161413;stroke:none"
         xlink:href="#GlFuturaStd-Bold37"
         transform="matrix(27.6,0,0,27.6,0,161.104)" />
      <use
         height="100%"
         width="100%"
         y="0"
         x="0"
         id="use35"
         style="fill:#161413;stroke:none"
         xlink:href="#GlFuturaStd-Bold34"
         transform="matrix(27.6,0,0,27.6,207.552,161.104)" />
      <use
         height="100%"
         width="100%"
         y="0"
         x="0"
         id="use37"
         style="fill:#161413;stroke:none"
         xlink:href="#GlFuturaStd-Bold37"
         transform="matrix(27.6,0,0,27.6,423.108,161.104)" />
      <use
         height="100%"
         width="100%"
         y="0"
         x="0"
         id="use39"
         style="fill:#161413;stroke:none"
         xlink:href="#GlFuturaStd-Bold34"
         transform="matrix(27.6,0,0,27.6,630.66,161.104)" />
      <use
         height="100%"
         width="100%"
         y="0"
         x="0"
         id="use41"
         style="fill:#fceb21;stroke:none"
         xlink:href="#GlFuturaStd-Bold37"
         transform="matrix(27.6,0,0,27.6,0,390.104)" />
      <use
         height="100%"
         width="100%"
         y="0"
         x="0"
         id="use43"
         style="fill:#fceb21;stroke:none"
         xlink:href="#GlFuturaStd-Bold37"
         transform="matrix(27.6,0,0,27.6,207.552,390.104)" />
      <use
         height="100%"
         width="100%"
         y="0"
         x="0"
         id="use45"
         style="fill:#fceb21;stroke:none"
         xlink:href="#GlFuturaStd-Bold34"
         transform="matrix(27.6,0,0,27.6,415.104,390.104)" />
      <use
         height="100%"
         width="100%"
         y="0"
         x="0"
         id="use47"
         style="fill:#fceb21;stroke:none"
         xlink:href="#GlFuturaStd-Bold34"
         transform="matrix(27.6,0,0,27.6,630.66,390.104)" />
      <use
         height="100%"
         width="100%"
         y="0"
         x="0"
         id="use49"
         style="fill:#161413;stroke:none"
         xlink:href="#GlFuturaStd-Bold34"
         transform="matrix(27.6,0,0,27.6,0,619.104)" />
      <use
         height="100%"
         width="100%"
         y="0"
         x="0"
         id="use51"
         style="fill:#161413;stroke:none"
         xlink:href="#GlFuturaStd-Bold34"
         transform="matrix(27.6,0,0,27.6,215.556,619.104)" />
      <use
         height="100%"
         width="100%"
         y="0"
         x="0"
         id="use53"
         style="fill:#161413;stroke:none"
         xlink:href="#GlFuturaStd-Bold37"
         transform="matrix(27.6,0,0,27.6,431.112,619.104)" />
      <use
         height="100%"
         width="100%"
         y="0"
         x="0"
         id="use55"
         style="fill:#161413;stroke:none"
         xlink:href="#GlFuturaStd-Bold37"
         transform="matrix(27.6,0,0,27.6,638.664,619.104)" />
      <path
         id="path57"
         d="m 0,0 850.394,0 0,961.372 L 0,961.372 0,0 Z"
         style="fill:none;stroke:none" />
    </g>
  </g>
</svg>
