<?xml version="1.0" encoding="UTF-8" standalone="no"?>
<!-- Created with Inkscape (http://www.inkscape.org/) -->

<svg
   xmlns:dc="http://purl.org/dc/elements/1.1/"
   xmlns:cc="http://creativecommons.org/ns#"
   xmlns:rdf="http://www.w3.org/1999/02/22-rdf-syntax-ns#"
   xmlns:svg="http://www.w3.org/2000/svg"
   xmlns="http://www.w3.org/2000/svg"
   xmlns:sodipodi="http://sodipodi.sourceforge.net/DTD/sodipodi-0.dtd"
   xmlns:inkscape="http://www.inkscape.org/namespaces/inkscape"
   viewBox="0 0 358.93024 123.0143"
   inkscape:export-ydpi="300"
   inkscape:export-xdpi="300"
   inkscape:export-filename="/Users/dominic/projects/tsnuk/threadless-contest/geometry-for-beginners-12.png"
   sodipodi:docname="vielseitig-desinteressiert-path.svg"
   inkscape:version="0.91 r13725"
   version="1.1"
   id="svg2"
   height="123.0143"
   width="358.93024">
  <defs
     id="defs4" />
  <sodipodi:namedview
     fit-margin-bottom="0"
     fit-margin-right="0"
     fit-margin-left="0"
     fit-margin-top="0"
     inkscape:snap-page="true"
     inkscape:snap-global="false"
     inkscape:bbox-nodes="true"
     inkscape:bbox-paths="false"
     inkscape:snap-bbox="true"
     inkscape:snap-others="false"
     inkscape:snap-nodes="false"
     inkscape:window-maximized="0"
     inkscape:window-y="1"
     inkscape:window-x="4"
     inkscape:window-height="843"
     inkscape:window-width="1437"
     showgrid="false"
     inkscape:current-layer="svg2"
     inkscape:document-units="px"
     inkscape:cy="-123.41874"
     inkscape:cx="574.64619"
     inkscape:zoom="0.7"
     inkscape:pageshadow="2"
     inkscape:pageopacity="0.0"
     borderopacity="1.0"
     bordercolor="#666666"
     pagecolor="#ffffff"
     id="base">
    <inkscape:grid
       type="xygrid"
       id="grid4413"
       spacingx="40"
       spacingy="40"
       empspacing="10"
       originx="-324.68319"
       originy="-744.26096" />
  </sodipodi:namedview>
  <metadata
     id="metadata7">
    <rdf:RDF>
      <cc:Work
         rdf:about="">
        <dc:format>image/svg+xml</dc:format>
        <dc:type
           rdf:resource="http://purl.org/dc/dcmitype/StillImage" />
        <dc:title></dc:title>
      </cc:Work>
    </rdf:RDF>
  </metadata>
  <path
     inkscape:connector-curvature="0"
     d="m 329.24943,26.001279 -0.71795,10.322422 10.5672,-0.969526 c -0.85976,5.873167 -5.34839,9.215435 -10.96221,9.730496 -8.51981,0.78168 -12.67524,-6.762582 -12.12934,-14.604982 0.49196,-7.704249 5.49255,-16.354966 14.01236,-17.136646 5.21755,-0.478703 8.74462,2.39454 10.23763,7.052829 l 12.60427,-6.3513 C 349.16705,4.9927838 341.54398,1.0301216 331.30701,1.9693494 315.25806,3.4418172 303.61905,15.232437 302.52788,31.649791 c -1.00756,15.876874 9.14829,25.667846 24.80096,24.231736 8.32167,-0.763502 15.8423,-4.450553 21.16222,-11.798549 4.8461,-6.705114 5.79553,-13.052715 6.44989,-20.438859 l -25.69152,2.35716 z M 298.2234,6.6697469 285.27858,7.8574158 281.98812,58.37645 294.93295,57.18878 298.2234,6.6697469 Z m -29.05802,13.7217951 10.6993,-0.981645 0.71129,-11.1210226 -34.34342,3.1509596 -0.71128,11.121022 10.69929,-0.981645 -2.57918,39.398011 12.94482,-1.187669 2.57918,-39.398011 z m -27.57043,-8.526215 -12.94482,1.187669 -3.29047,50.519034 12.94482,-1.187669 3.29047,-50.519034 z m -21.69916,13.04663 0.71129,-11.121023 -28.33332,2.599542 -3.29047,50.519034 28.33332,-2.599542 0.71129,-11.121023 -15.38849,1.411873 0.5992,-8.713103 14.59596,-1.339158 0.71128,-11.121023 -14.59594,1.339158 0.55739,-8.442863 15.38849,-1.411872 z m -35.90282,-4.964489 c -4.259,-2.14008 -10.28244,-3.185861 -15.30186,-2.725336 -9.9728,0.91499 -17.62247,8.276935 -18.28045,18.527252 -0.70039,9.788003 4.51295,11.440918 12.51834,13.037469 2.71452,0.550159 7.71698,1.356608 7.45585,5.04362 -0.20721,3.548863 -3.56822,5.389054 -6.60629,5.667793 -4.42502,0.405989 -8.07145,-1.590491 -11.17194,-4.169867 l -6.24151,11.095604 c 4.88433,3.148323 10.89019,4.728524 17.16447,4.152868 5.01943,-0.460525 10.30787,-2.344353 14.42991,-6.052593 4.18202,-3.780344 5.69678,-9.047597 6.03486,-14.073689 0.58164,-8.178684 -4.5608,-11.236724 -11.35315,-12.678165 l -3.26105,-0.699818 c -2.1801,-0.53259 -5.58536,-1.352379 -5.38966,-4.300777 0.14176,-2.810248 3.44886,-4.512289 5.82647,-4.730432 3.17017,-0.290858 6.06525,0.775542 8.36047,2.562987 l 5.81554,-10.656916 z m -56.31087,2.369201 -12.94482,1.187669 -3.29047,50.519034 28.4654,-2.61166 0.7113,-11.121023 -15.52058,1.423991 2.57917,-39.398011 z m -21.69915,13.04663 0.71128,-11.121023 -28.333312,2.599542 -3.290467,50.519033 28.333319,-2.599541 0.71128,-11.121023 -15.388487,1.411873 0.599206,-8.713103 14.595951,-1.339158 0.71129,-11.121023 -14.595953,1.339158 0.557398,-8.442863 15.388495,-1.411872 z M 69.892707,27.618764 56.947883,28.806433 53.657416,79.325467 66.60224,78.137798 69.892707,27.618764 Z M 14.06759,32.740639 -1.6168503e-7,34.031321 17.645806,82.629481 27.684649,81.708431 52.241614,29.238227 38.174023,30.528908 24.107811,62.322712 14.06759,32.740639 Z"
     style="color:#000000;font-style:oblique;font-variant:normal;font-weight:bold;font-stretch:normal;font-size:66.32241821px;line-height:125%;font-family:'Futura Std';-inkscape-font-specification:'Futura Std Bold Oblique';text-indent:0;text-align:start;text-decoration:none;text-decoration-line:none;text-decoration-style:solid;text-decoration-color:#000000;letter-spacing:0px;word-spacing:0px;text-transform:none;direction:ltr;block-progression:tb;writing-mode:lr-tb;baseline-shift:baseline;text-anchor:start;white-space:normal;clip-rule:nonzero;visibility:visible;isolation:auto;mix-blend-mode:normal;color-interpolation:sRGB;color-interpolation-filters:linearRGB;solid-color:#000000;solid-opacity:1;fill:#2d2d2d;fill-opacity:1;fill-rule:nonzero;stroke:none;stroke-width:1.93408597;stroke-linecap:butt;stroke-linejoin:round;stroke-miterlimit:4;stroke-dasharray:none;stroke-dashoffset:0;stroke-opacity:1;color-rendering:auto;image-rendering:auto;shape-rendering:auto;text-rendering:auto"
     id="path4187" />
  <path
     style="color:#000000;font-style:oblique;font-variant:normal;font-weight:bold;font-stretch:normal;font-size:40.49360275px;line-height:125%;font-family:'Futura Std';-inkscape-font-specification:'Futura Std Bold Oblique';text-indent:0;text-align:start;text-decoration:none;text-decoration-line:none;text-decoration-style:solid;text-decoration-color:#000000;letter-spacing:0px;word-spacing:0px;text-transform:none;direction:ltr;block-progression:tb;writing-mode:lr-tb;baseline-shift:baseline;text-anchor:start;white-space:normal;clip-rule:nonzero;visibility:visible;isolation:auto;mix-blend-mode:normal;color-interpolation:sRGB;color-interpolation-filters:linearRGB;solid-color:#000000;solid-opacity:1;fill:#2d2d2d;fill-opacity:1;fill-rule:nonzero;stroke:none;stroke-width:1.93408597;stroke-linecap:butt;stroke-linejoin:round;stroke-miterlimit:4;stroke-dasharray:none;stroke-dashoffset:0;stroke-opacity:1;color-rendering:auto;image-rendering:auto;shape-rendering:auto;text-rendering:auto"
     d="M 356.29492 61.830078 L 335.31641 63.648438 L 334.84766 70.435547 L 341.38477 69.869141 L 339.6875 93.916016 L 347.59375 93.230469 L 349.29102 69.183594 L 355.82617 68.617188 L 356.29492 61.830078 z M 323.16406 64.734375 C 322.80202 64.743003 322.43233 64.764331 322.05664 64.796875 L 310.23633 65.820312 L 308.07031 96.654297 L 315.97852 95.96875 L 316.82031 84.109375 L 316.90039 84.101562 L 323.52148 95.316406 L 333.36523 94.462891 L 324.70117 82.654297 C 329.07245 81.503377 331.662 77.620261 331.98438 73.365234 C 332.40242 67.194127 328.59471 64.604958 323.16406 64.734375 z M 305.32422 66.246094 L 288.01758 67.744141 L 285.85156 98.580078 L 303.1582 97.080078 L 303.62695 90.292969 L 294.22656 91.107422 L 294.61914 85.789062 L 303.53516 85.015625 L 304.00391 78.228516 L 295.08789 79 L 295.45508 73.847656 L 304.85547 73.033203 L 305.32422 66.246094 z M 282.84375 68.193359 L 274.9375 68.878906 L 272.77148 99.712891 L 280.67773 99.027344 L 282.84375 68.193359 z M 261.71094 69.255859 C 261.31197 69.260729 260.91841 69.279301 260.53516 69.3125 C 254.44344 69.84019 249.7519 74.312083 249.31836 80.568359 C 248.86035 86.542243 252.0372 87.56678 256.91992 88.566406 C 258.57556 88.910727 261.6279 89.41963 261.45703 91.669922 C 261.3195 93.836032 259.26201 94.948621 257.40625 95.109375 C 254.70331 95.343515 252.48266 94.113761 250.59766 92.529297 L 246.75195 99.283203 C 249.72429 101.22058 253.38621 102.20505 257.21875 101.87305 C 260.28478 101.60746 263.52062 100.47197 266.04883 98.220703 C 268.61389 95.925593 269.55338 92.716062 269.77539 89.648438 C 270.1559 84.656757 267.02736 82.772246 262.88477 81.871094 L 260.89453 81.433594 C 259.56513 81.101655 257.48855 80.590551 257.61719 78.791016 C 257.71249 77.07566 259.73712 76.047682 261.18945 75.921875 C 263.12589 75.754133 264.8913 76.413274 266.28711 77.511719 L 269.87109 71.023438 C 267.60162 69.868575 264.50369 69.221769 261.71094 69.255859 z M 319.48242 71.144531 C 321.75741 71.086387 323.92494 71.635988 323.7168 74.570312 C 323.4789 77.923835 320.53505 78.666968 317.95312 78.890625 L 317.1875 78.957031 L 317.74023 71.267578 L 318.50586 71.201172 C 318.8286 71.173215 319.15742 71.152838 319.48242 71.144531 z M 236.89062 71.40625 C 236.49166 71.41112 236.10005 71.429692 235.7168 71.462891 C 229.62508 71.990581 224.9316 76.460521 224.49805 82.716797 C 224.04006 88.69068 227.21687 89.717173 232.09961 90.716797 C 233.75524 91.061119 236.80761 91.568066 236.63672 93.818359 C 236.49921 95.984468 234.44169 97.099013 232.58594 97.259766 C 229.88299 97.493907 227.66234 96.262199 225.77734 94.677734 L 221.93164 101.43359 C 224.90398 103.37096 228.56591 104.35347 232.39844 104.02148 C 235.46447 103.75588 238.70031 102.62236 241.22852 100.37109 C 243.79359 98.075982 244.73501 94.864501 244.95703 91.796875 C 245.33753 86.805194 242.20704 84.922637 238.06445 84.021484 L 236.07422 83.583984 C 234.74483 83.252044 232.66824 82.74094 232.79688 80.941406 C 232.89218 79.22605 234.9168 78.198073 236.36914 78.072266 C 238.30557 77.904523 240.071 78.563663 241.4668 79.662109 L 245.05078 73.173828 C 242.7813 72.018965 239.68339 71.37216 236.89062 71.40625 z M 220.38477 73.603516 L 203.07617 75.103516 L 200.91016 105.9375 L 218.21875 104.4375 L 218.6875 97.650391 L 209.28711 98.464844 L 209.67969 93.146484 L 218.5957 92.375 L 219.06445 85.585938 L 210.14844 86.359375 L 210.51562 81.205078 L 219.91602 80.390625 L 220.38477 73.603516 z M 188.58398 76.392578 C 188.22194 76.401206 187.85225 76.422534 187.47656 76.455078 L 175.65625 77.478516 L 173.49023 108.3125 L 181.39844 107.62695 L 182.24023 95.767578 L 182.32031 95.759766 L 188.94141 106.97461 L 198.78516 106.12109 L 190.12109 94.3125 C 194.49237 93.161579 197.08192 89.278464 197.4043 85.023438 C 197.82236 78.852331 194.01463 76.263162 188.58398 76.392578 z M 170.74414 77.904297 L 153.4375 79.402344 L 151.27148 110.23633 L 168.57812 108.73828 L 169.04688 101.94922 L 159.64648 102.76367 L 160.03906 97.447266 L 168.95508 96.673828 L 169.42383 89.886719 L 160.50781 90.658203 L 160.875 85.505859 L 170.27539 84.691406 L 170.74414 77.904297 z M 150.56445 79.652344 L 129.58594 81.46875 L 129.11719 88.255859 L 135.65234 87.691406 L 133.95508 111.73633 L 141.86328 111.05273 L 143.56055 87.005859 L 150.0957 86.439453 L 150.56445 79.652344 z M 126.76758 81.712891 L 118.86133 82.398438 L 117.52734 101.25195 L 117.44531 101.25781 L 104.29688 83.660156 L 96.390625 84.34375 L 94.224609 115.17773 L 102.13086 114.49414 L 103.46094 95.599609 L 103.54297 95.59375 L 116.69531 113.23242 L 124.60156 112.54688 L 126.76758 81.712891 z M 184.90234 82.800781 C 187.17734 82.742637 189.34488 83.294191 189.13672 86.228516 C 188.89882 89.582038 185.95497 90.323218 183.37305 90.546875 L 182.60742 90.613281 L 183.16016 82.925781 L 183.92578 82.859375 C 184.24852 82.831418 184.57734 82.809088 184.90234 82.800781 z M 91.216797 84.792969 L 83.310547 85.478516 L 81.144531 116.3125 L 89.050781 115.62695 L 91.216797 84.792969 z M 70.083984 85.855469 C 69.685019 85.860339 69.291457 85.87891 68.908203 85.912109 C 62.816481 86.4398 58.124948 90.911693 57.691406 97.167969 C 57.233404 103.14185 60.410239 104.16639 65.292969 105.16602 C 66.948606 105.51034 70.000955 106.01923 69.830078 108.26953 C 69.692554 110.43564 67.635052 111.54823 65.779297 111.70898 C 63.076347 111.94312 60.855701 110.71337 58.970703 109.12891 L 55.125 115.88281 C 58.097346 117.82018 61.759258 118.80465 65.591797 118.47266 C 68.65783 118.20707 71.893657 117.07158 74.421875 114.82031 C 76.98694 112.5252 77.926426 109.31568 78.148438 106.24805 C 78.528942 101.25637 75.400399 99.371856 71.257812 98.470703 L 69.267578 98.033203 C 67.938177 97.701264 65.8616 97.19016 65.990234 95.390625 C 66.085514 93.675269 68.11017 92.647291 69.5625 92.521484 C 71.498942 92.353741 73.264356 93.012882 74.660156 94.111328 L 78.244141 87.623047 C 75.974662 86.468184 72.876742 85.821379 70.083984 85.855469 z M 53.576172 88.052734 L 36.269531 89.552734 L 34.103516 120.38672 L 51.412109 118.88672 L 51.880859 112.09961 L 42.480469 112.91406 L 42.873047 107.5957 L 51.789062 106.82422 L 52.257812 100.03516 L 43.341797 100.80859 L 43.708984 95.654297 L 53.107422 94.841797 L 53.576172 88.052734 z M 18.712891 91.150391 C 18.199999 91.143596 17.679886 91.163117 17.150391 91.208984 L 5.9335938 92.179688 L 3.7675781 123.01367 L 14.984375 122.04297 C 23.415962 121.31259 30.906328 113.9566 31.537109 105.28516 C 32.090647 97.158962 26.40626 91.252309 18.712891 91.150391 z M 16.160156 98.078125 C 20.717631 98.042803 23.660547 100.82339 23.308594 105.99805 C 22.854086 112.01228 18.639998 114.9798 13.919922 115.38867 L 12.144531 115.54102 L 13.373047 98.283203 L 15.228516 98.123047 C 15.546213 98.095527 15.856325 98.08048 16.160156 98.078125 z "
     id="path4138" />
</svg>
